<svg xmlns="http://www.w3.org/2000/svg" xmlns:xlink="http://www.w3.org/1999/xlink" xmlns:lucid="lucid" width="1360" height="1760"><g transform="translate(0 0)" lucid:page-tab-id=".Q4MUjXso07N"><path d="M0 0h1360v1760H0z" fill="#fff"/><path d="M342.78 85a5 5 0 0 1 5-5H1035a5 5 0 0 1 5 5v1550a5 5 0 0 1-5 5H347.78a5 5 0 0 1-5-5z" stroke="#333" fill-opacity="0"/><use xlink:href="#a" transform="matrix(1,0,0,1,350.777140437133,88) translate(296.7098765432099 15.11111111111111)"/><path d="M139.75 839.75c0 10.9-8.84 19.75-19.75 19.75-10.9 0-19.75-8.84-19.75-19.75 0-10.9 8.84-19.75 19.75-19.75 10.9 0 19.75 8.84 19.75 19.75z" stroke="#333" fill="#fff"/><path d="M120 859.5v50.3a17.25 17.25 0 0 0 2.67 9.23L160 978m-40-63.2L80 978m0-98.75h80" stroke="#333" fill="none"/><path d="M80 825a5 5 0 0 1 5-5h70a5 5 0 0 1 5 5v170a5 5 0 0 1-5 5H85a5 5 0 0 1-5-5z" fill="none"/><use xlink:href="#b" transform="matrix(1,0,0,1,0,978) translate(84.46913580246914 14.888888888888888)"/><path d="M1179.75 853.83c0 10.9-8.84 19.75-19.75 19.75-10.9 0-19.75-8.85-19.75-19.75s8.84-19.75 19.75-19.75c10.9 0 19.75 8.84 19.75 19.75z" stroke="#333" fill="#fff"/><path d="M1160 873.58v50.3a17.25 17.25 0 0 0 2.67 9.22l37.33 58.98m-40-63.2l-40 63.2m0-98.75h80" stroke="#333" fill="none"/><path d="M1120 839.08a5 5 0 0 1 5-5h70a5 5 0 0 1 5 5v170a5 5 0 0 1-5 5h-70a5 5 0 0 1-5-5z" fill="none"/><use xlink:href="#c" transform="matrix(1,0,0,1,1040,992.0777025045129) translate(30.197530864197518 14.888888888888888)"/><use xlink:href="#d" transform="matrix(1,0,0,1,1040,992.0777025045129) translate(94.2962962962963 14.888888888888888)"/><use xlink:href="#e" transform="matrix(1,0,0,1,1040,992.0777025045129) translate(118.98765432098767 14.888888888888888)"/><path d="M546.1 380c0 33.14-35.8 60-80 60-44.17 0-80-26.86-80-60s35.83-60 80-60c44.2 0 80 26.86 80 60z" stroke="#fff" fill="#3278cc"/><use xlink:href="#f" transform="matrix(1,0,0,1,410.11257693902303,343.9989633254834) translate(23.50617283950617 28.888888888888886)"/><use xlink:href="#g" transform="matrix(1,0,0,1,410.11257693902303,343.9989633254834) translate(16.02469135802469 50.22222222222222)"/><path d="M900 381.12c0 33.13-35.82 60-80 60s-80-26.87-80-60c0-33.14 35.82-60 80-60s80 26.86 80 60z" stroke="#fff" fill="#3278cc"/><use xlink:href="#h" transform="matrix(1,0,0,1,764,345.1165537567863) translate(33.407407407407405 18.22222222222222)"/><use xlink:href="#i" transform="matrix(1,0,0,1,764,345.1165537567863) translate(7.160493827160494 39.55555555555556)"/><use xlink:href="#j" transform="matrix(1,0,0,1,764,345.1165537567863) translate(85.08641975308642 39.55555555555556)"/><use xlink:href="#k" transform="matrix(1,0,0,1,764,345.1165537567863) translate(20.469135802469133 60.88888888888889)"/><path d="M120.73 909.55l264.66-529.1M120.73 909.54l-1.57 3.14" stroke="#333" fill="none"/><path d="M385.6 380v.4l.02.18-.68-.35.7-1.42z" stroke="#333" stroke-width=".05" fill="#333"/><path d="M739 381.1l-4.9-.02m-4.92-.02l-9.82-.06m-4.9-.03l-9.83-.06m-4.9 0l-9.83-.07m-4.9-.03l-9.83-.06m-4.9-.03l-9.82-.04m-4.92-.03l-9.8-.06m-4.92-.02l-9.8-.06m-4.92-.04l-9.82-.06m-4.9-.03l-9.83-.05m-4.9-.03l-9.83-.07m-4.9-.03l-9.83-.05m-4.9-.03l-9.83-.06m-4.9-.03l-4.92-.03" stroke="#333" fill="none"/><path d="M739.5 380.62v1H739v-1z" stroke="#333" stroke-width=".05" fill="#333"/><path d="M564.87 369.92L547.6 380l17.15 10.3" stroke="#333" fill="none"/><use xlink:href="#l" transform="matrix(1,0,0,1,592.6191914426859,355.22852318262443) translate(0 14.222222222222223)"/><path d="M1179.75 459.75c0 10.9-8.84 19.75-19.75 19.75-10.9 0-19.75-8.84-19.75-19.75 0-10.9 8.84-19.75 19.75-19.75 10.9 0 19.75 8.84 19.75 19.75z" stroke="#333" fill="#fff"/><path d="M1160 479.5v50.3a17.25 17.25 0 0 0 2.67 9.22L1200 598m-40-63.2l-40 63.2m0-98.75h80" stroke="#333" fill="none"/><path d="M1120 445a5 5 0 0 1 5-5h70a5 5 0 0 1 5 5v170a5 5 0 0 1-5 5h-70a5 5 0 0 1-5-5z" fill="none"/><use xlink:href="#m" transform="matrix(1,0,0,1,1040,597.9989633254834) translate(74.19753086419752 14.888888888888888)"/><path d="M560.5 924.08c0 33.13-35.82 60-80 60s-80-26.87-80-60c0-33.14 35.82-60 80-60s80 26.86 80 60z" stroke="#fff" fill="#3278cc"/><use xlink:href="#f" transform="matrix(1,0,0,1,424.5,888.0777025045129) translate(23.50617283950617 28.888888888888886)"/><use xlink:href="#n" transform="matrix(1,0,0,1,424.5,888.0777025045129) translate(11.580246913580247 50.22222222222222)"/><path d="M900.63 965.2c0 33.13-35.82 60-80 60s-80-26.87-80-60c0-33.14 35.82-60 80-60s80 26.86 80 60z" stroke="#fff" fill="#3278cc"/><use xlink:href="#f" transform="matrix(1,0,0,1,764.630468011627,929.1932195868503) translate(23.50617283950617 14.222222222222223)"/><use xlink:href="#o" transform="matrix(1,0,0,1,764.630468011627,929.1932195868503) translate(11.580246913580247 35.55555555555556)"/><use xlink:href="#p" transform="matrix(1,0,0,1,764.630468011627,929.1932195868503) translate(12.098765432098759 56.88888888888889)"/><use xlink:href="#q" transform="matrix(1,0,0,1,764.630468011627,929.1932195868503) translate(50.5679012345679 56.88888888888889)"/><use xlink:href="#r" transform="matrix(1,0,0,1,764.630468011627,929.1932195868503) translate(19.48148148148148 78.22222222222223)"/><use xlink:href="#s" transform="matrix(1,0,0,1,764.630468011627,929.1932195868503) translate(44.17283950617284 78.22222222222223)"/><path d="M739.64 965.08l-4.93-1.13m-4.93-1.13l-9.88-2.27m-4.94-1.13l-9.88-2.27m-4.94-1.13l-9.87-2.27m-4.94-1.13l-9.88-2.27m-4.94-1.13l-9.86-2.27m-4.94-1.13l-9.87-2.27m-4.94-1.13l-9.9-2.27m-4.92-1.13l-9.88-2.27m-4.94-1.14l-9.87-2.25m-4.95-1.14l-9.88-2.25m-4.93-1.14l-9.88-2.25m-4.94-1.14l-4.93-1.12" stroke="#333" fill="none"/><path d="M740.15 964.68l-.02.5v.53l-.6-.13.2-.98z" stroke="#333" stroke-width=".05" fill="#333"/><path d="M581 918.23l-19.04 6.07 14.5 13.77" stroke="#333" fill="none"/><use xlink:href="#l" transform="matrix(1,0,0,1,639.6290178744042,923.2644358789864) translate(0 14.222222222222223)"/><path d="M900.5 835.2c0 33.13-35.82 60-80 60s-80-26.87-80-60c0-33.15 35.82-60 80-60s80 26.85 80 60z" stroke="#fff" fill="#3278cc"/><use xlink:href="#f" transform="matrix(1,0,0,1,764.5000000000261,799.1921829123676) translate(23.50617283950617 14.222222222222223)"/><use xlink:href="#o" transform="matrix(1,0,0,1,764.5000000000261,799.1921829123676) translate(11.580246913580247 35.55555555555556)"/><use xlink:href="#p" transform="matrix(1,0,0,1,764.5000000000261,799.1921829123676) translate(12.098765432098759 56.88888888888889)"/><use xlink:href="#q" transform="matrix(1,0,0,1,764.5000000000261,799.1921829123676) translate(50.5679012345679 56.88888888888889)"/><use xlink:href="#r" transform="matrix(1,0,0,1,764.5000000000261,799.1921829123676) translate(17.037037037037038 78.22222222222223)"/><use xlink:href="#t" transform="matrix(1,0,0,1,764.5000000000261,799.1921829123676) translate(41.7283950617284 78.22222222222223)"/><path d="M557.02 904.07l4.8-1.25m4.77-1.25l9.56-2.5m4.78-1.25l9.57-2.5m4.8-1.25l9.56-2.5m4.78-1.25l9.57-2.5m4.8-1.25l9.56-2.5m4.78-1.26l9.57-2.5m4.8-1.24l9.56-2.5m4.78-1.25l9.57-2.5m4.8-1.24l9.56-2.5m4.8-1.25l9.55-2.5m4.8-1.25l9.56-2.5m4.8-1.25l9.55-2.5m4.8-1.25l4.78-1.25" stroke="#333" fill="none"/><path d="M557.16 904.55l-.42.1-.4-.9.57-.16z" stroke="#333" stroke-width=".05" fill="#333"/><path d="M729.43 869.52l14.08-14.2-19.22-5.5" stroke="#333" fill="none"/><use xlink:href="#u" transform="matrix(1,0,0,1,544.0868981353846,862.6408792321715) translate(0.005000000000002558 14.4)"/><path d="M121 898.93h.04c0-2.76 2.24-5 5-5s5 2.24 5 5h275.74M121 898.93h-3.5" stroke="#333" fill="none"/><path d="M407 899.43h-.23v-1h.8z" stroke="#333" stroke-width=".05" fill="#333"/><path d="M1160.02 912.87l-258.54-77.53M1160 912.86l3.37 1" stroke="#333" fill="none"/><path d="M901.63 834.86l-.28.96-.37-.1.02-.52v-.53z" stroke="#333" stroke-width=".05" fill="#333"/><path d="M901.62 965.1l258.4-52" stroke="#333" fill="none"/><path d="M901.73 965.58l-.62.13.03-.5v-.52l.4-.08z" stroke="#333" stroke-width=".05" fill="#333"/><path d="M1160 913.1l3.44-.68" stroke="#333" fill="none"/><path d="M546.1 530c0 33.14-35.8 60-80 60-44.17 0-80-26.86-80-60s35.83-60 80-60c44.2 0 80 26.86 80 60z" stroke="#fff" fill="#3278cc"/><use xlink:href="#v" transform="matrix(1,0,0,1,410.1125769390492,493.99896332551725) translate(20.02469135802469 28.888888888888886)"/><use xlink:href="#w" transform="matrix(1,0,0,1,410.1125769390492,493.99896332551725) translate(5.160493827160494 50.22222222222222)"/><path d="M385.32 530.4L127.98 890.9" stroke="#333" fill="none"/><path d="M385.6 530v.4l.02.24-.7-.5.72-1.04z" stroke="#333" stroke-width=".05" fill="#333"/><path d="M128 890.88l-.3.42" stroke="#333" fill="none"/><path d="M900.5 1095.2c0 33.13-35.82 60-80 60s-80-26.87-80-60c0-33.14 35.82-60 80-60s80 26.86 80 60z" stroke="#fff" fill="#3278cc"/><use xlink:href="#f" transform="matrix(1,0,0,1,764.5,1059.1942562613328) translate(23.50617283950617 18.22222222222222)"/><use xlink:href="#o" transform="matrix(1,0,0,1,764.5,1059.1942562613328) translate(11.580246913580247 39.55555555555556)"/><use xlink:href="#p" transform="matrix(1,0,0,1,764.5,1059.1942562613328) translate(22.444444444444443 60.88888888888889)"/><use xlink:href="#x" transform="matrix(1,0,0,1,764.5,1059.1942562613328) translate(60.91358024691358 60.88888888888889)"/><path d="M901.4 1094.9l258.7-173.88" stroke="#333" fill="none"/><path d="M901.7 1095.32l-.72.5.02-.62V1094.6l.15-.1z" stroke="#333" stroke-width=".05" fill="#333"/><path d="M1160.07 921.03l2.92-1.96" stroke="#333" fill="none"/><path d="M739.88 1094.5l-.58.82-4.02-2.8.57-.83zm-8.06-5.62l-.57.82-8.05-5.6.57-.83zm-12.08-8.42l-.57.82-8.05-5.6.57-.83zm-12.08-8.42l-.57.82-8.06-5.6.57-.83zm-12.07-8.42l-.6.82-8.04-5.6.57-.83zm-12.1-8.42l-.56.82-8.06-5.6.58-.83zm-12.07-8.42l-.57.82-8.06-5.6.58-.83zm-12.08-8.42l-.57.82-1.37-.95h1.76zm-31.18-21.73h-1.53l.5-.72zm-5.06-3.53l-.56.82-8.05-5.6.56-.83zm-12.07-8.42l-.57.82-8.05-5.62.58-.8zm-12.07-8.42l-.58.82-8.05-5.62.57-.82zm-12.08-8.42l-.58.82-8.05-5.62.57-.82zm-12.08-8.42l-.57.82-8.06-5.62.58-.82zM562.72 971l-.57.82-8.06-5.62.57-.82zm-12.08-8.42l-.57.82-4.03-2.8.57-.83z" stroke="#333" stroke-width=".05" fill="#333"/><path d="M740.02 1094.6l-.02.6V1095.8l-.7-.5.57-.8z" fill="#333"/><path d="M740.04 1094.6v1.26l-.78-.54.6-.86zm-.7.7l.64.46v-1.17l-.1-.07zM566.37 961.22l-.08 1-19.1-1.44 7.94 17.43-.9.42-8.66-18.96z" stroke="#333" stroke-width=".05" fill="#333"/><use xlink:href="#y" transform="matrix(1,0,0,1,590.290795242172,1016.6267789150795) translate(0.005000000000002558 14.4)"/><path d="M561 1281.07c0 33.13-35.82 60-80 60s-80-26.87-80-60c0-33.14 35.82-60 80-60s80 26.86 80 60z" stroke="#fff" fill="#3278cc"/><use xlink:href="#z" transform="matrix(1,0,0,1,425,1245.0683750990427) translate(3.2592592592592524 39.55555555555556)"/><use xlink:href="#A" transform="matrix(1,0,0,1,425,1245.0683750990427) translate(59.45679012345679 39.55555555555556)"/><path d="M561 1465.92c0 33.14-35.82 60-80 60s-80-26.86-80-60c0-33.13 35.82-60 80-60s80 26.87 80 60z" stroke="#fff" fill="#3278cc"/><use xlink:href="#B" transform="matrix(1,0,0,1,425,1429.922297495487) translate(1.209876543209873 39.55555555555556)"/><use xlink:href="#C" transform="matrix(1,0,0,1,425,1429.922297495487) translate(73.25925925925927 39.55555555555556)"/><path d="M1179.75 1199.75c0 10.9-8.84 19.75-19.75 19.75-10.9 0-19.75-8.84-19.75-19.75 0-10.9 8.84-19.75 19.75-19.75 10.9 0 19.75 8.84 19.75 19.75z" stroke="#333" fill="#fff"/><path d="M1160 1219.5v50.3a17.25 17.25 0 0 0 2.67 9.23L1200 1338m-40-63.2l-40 63.2m0-98.75h80" stroke="#333" fill="none"/><path d="M1120 1185a5 5 0 0 1 5-5h70a5 5 0 0 1 5 5v170a5 5 0 0 1-5 5h-70a5 5 0 0 1-5-5z" fill="none"/><use xlink:href="#D" transform="matrix(1,0,0,1,1040,1338) translate(43.53086419753086 14.888888888888888)"/><use xlink:href="#d" transform="matrix(1,0,0,1,1040,1338) translate(122.49382716049382 14.888888888888888)"/><use xlink:href="#E" transform="matrix(1,0,0,1,1040,1338) translate(147.1851851851852 14.888888888888888)"/><path d="M1179.75 1406.74c0 10.9-8.84 19.75-19.75 19.75-10.9 0-19.75-8.85-19.75-19.76 0-10.9 8.84-19.75 19.75-19.75 10.9 0 19.75 8.83 19.75 19.74z" stroke="#333" fill="#fff"/><path d="M1160 1426.5v50.3a17.25 17.25 0 0 0 2.67 9.22L1200 1545m-40-63.2l-40 63.2m0-98.76h80" stroke="#333" fill="none"/><path d="M1120 1392a5 5 0 0 1 5-5h70a5 5 0 0 1 5 5v170a5 5 0 0 1-5 5h-70a5 5 0 0 1-5-5z" fill="none"/><use xlink:href="#F" transform="matrix(1,0,0,1,1040,1544.9906725945295) translate(49.48148148148147 14.888888888888888)"/><use xlink:href="#G" transform="matrix(1,0,0,1,1040,1544.9906725945295) translate(145.1358024691358 14.888888888888888)"/><path d="M901.13 1282.18c0 33.14-35.82 60-80 60s-80-26.86-80-60c0-33.13 35.82-60 80-60s80 26.87 80 60z" stroke="#fff" fill="#3278cc"/><use xlink:href="#H" transform="matrix(1,0,0,1,765.130468011627,1246.184928855829) translate(17.061728395061728 28.888888888888886)"/><use xlink:href="#I" transform="matrix(1,0,0,1,765.130468011627,1246.184928855829) translate(27.407407407407405 50.22222222222222)"/><path d="M900.13 531.12c0 33.13-35.82 60-80 60s-80-26.87-80-60c0-33.14 35.82-60 80-60s80 26.86 80 60z" stroke="#fff" fill="#3278cc"/><use xlink:href="#H" transform="matrix(1,0,0,1,764.130468011601,495.11551708230354) translate(17.061728395061728 28.888888888888886)"/><use xlink:href="#J" transform="matrix(1,0,0,1,764.130468011601,495.11551708230354) translate(21.97530864197531 50.22222222222222)"/><path d="M739.13 531.1l-4.9-.02m-4.92-.02l-9.8-.06m-4.92-.03l-9.82-.06m-4.9 0l-9.83-.07m-4.9-.03l-9.83-.06m-4.9-.03l-9.82-.04m-4.9-.03l-9.83-.06m-4.9-.03l-9.83-.05m-4.9-.04l-9.83-.06m-4.92-.03l-9.82-.05m-4.9-.03l-9.83-.07m-4.9-.03l-9.83-.06m-4.9-.02l-9.83-.06m-4.9-.03l-4.92-.03" stroke="#333" fill="none"/><path d="M739.65 530.62l-.02.5v.5h-.5v-1z" stroke="#333" stroke-width=".05" fill="#333"/><path d="M565 519.92L547.73 530l17.15 10.28" stroke="#333" fill="none"/><use xlink:href="#l" transform="matrix(1,0,0,1,592.7496594542843,505.2274865081584) translate(0 14.222222222222223)"/><path d="M901.13 531.1L1160 530" stroke="#333" fill="none"/><path d="M901.14 531.6l-.52.02v-1h.52z" stroke="#333" stroke-width=".05" fill="#333"/><path d="M1160 530h3.5M740.13 1282.18h-4.92m-4.9 0h-9.84m-4.92 0h-9.83m-4.9 0h-9.84m-4.92 0h-9.83m-4.9 0h-9.84m-4.92 0h-5l-.1-.02-.07-.04-.08-.04-.07-.06-.06-.07-.04-.07-.04-.08-.03-.1v-.17l-.03-.08-.04-.08-.04-.07-.06-.07-.06-.06-.08-.04-.08-.03-.1-.02H645.62m-4.88 0h-9.8m-4.88 0h-9.8m-4.9 0h-9.78m-4.9 0h-9.78m-4.9 0h-9.78m-4.9 0h-4.9" stroke="#333" fill="none"/><path d="M740.63 1282.18v.5h-.5v-1h.52z" stroke="#333" stroke-width=".05" fill="#333"/><path d="M579.7 1270.9l-17.22 10.17 17.22 10.18" stroke="#333" fill="none"/><g><use xlink:href="#y" transform="matrix(1,0,0,1,620.4993747912938,1256.584928855829) translate(0.005000000000002558 14.4)"/></g><path d="M1159 1258.98l-256.87 23.16M1159 1258.98l3.5-.32" stroke="#333" fill="none"/><path d="M902.2 1282.64l-.6.05.03-.5v-.52l.47-.04z" stroke="#333" stroke-width=".05" fill="#333"/><path d="M119.8 899.32l.6.74c2.16-1.73 5.3-1.38 7.03.78 1.72 2.15 1.38 5.3-.78 7.02l279.74 349.5M119.82 899.33l-2.2-2.74" stroke="#333" fill="none"/><path d="M406.97 1257.3l-.47.8-.06.12-.45-.55.77-.63z" stroke="#333" stroke-width=".05" fill="#333"/><path d="M901.13 1467.04c0 33.14-35.82 60-80 60s-80-26.86-80-60 35.82-60 80-60 80 26.86 80 60z" stroke="#fff" fill="#3278cc"/><g><use xlink:href="#H" transform="matrix(1,0,0,1,765.1304680114845,1431.0388512522395) translate(17.061728395061728 28.888888888888886)"/><use xlink:href="#C" transform="matrix(1,0,0,1,765.1304680114845,1431.0388512522395) translate(37.23456790123457 50.22222222222222)"/></g><path d="M740.13 1467.04h-4.92m-4.9 0h-9.84m-4.92 0h-9.83m-4.9 0h-9.84m-4.92 0h-9.83m-4.9 0h-9.84m-4.92 0h-5l-.1-.03-.07-.02-.08-.05-.07-.06-.06-.06-.04-.07-.04-.08-.03-.08v-.18l-.03-.1-.04-.07-.04-.08-.06-.06-.06-.07-.08-.05-.08-.03-.1-.02H645.62m-4.88 0h-9.8m-4.88 0h-9.8m-4.9 0h-9.78m-4.9 0h-9.78m-4.9 0h-9.78m-4.9 0h-4.9" stroke="#333" fill="none"/><path d="M740.63 1467.03v.5h-.5v-1h.52z" stroke="#333" stroke-width=".05" fill="#333"/><path d="M579.7 1455.74l-17.22 10.18 17.22 10.18" stroke="#333" fill="none"/><g><use xlink:href="#y" transform="matrix(1,0,0,1,620.4993747912251,1441.4388512522396) translate(0.005000000000002558 14.4)"/></g><path d="M1159 1465.92l-256.87 1.12M1159 1465.92h3.5" stroke="#333" fill="none"/><path d="M902.14 1467.54h-.52v-1h.52z" stroke="#333" stroke-width=".05" fill="#333"/><path d="M119.72 899.38l.82 1.64c2.47-1.23 5.47-.2 6.7 2.26 1.22 2.48.2 5.48-2.26 6.7l275.3 555.5M119.73 899.4l-1.56-3.16" stroke="#333" fill="none"/><path d="M400.5 1465.92v.4l.03.8-.7-1.43.7-.36z" stroke="#333" stroke-width=".05" fill="#333"/><path d="M900.13 681.12c0 33.13-35.82 60-80 60s-80-26.87-80-60c0-33.14 35.82-60 80-60s80 26.86 80 60z" stroke="#fff" fill="#3278cc"/><g><use xlink:href="#K" transform="matrix(1,0,0,1,764.1304680117173,645.1155170823035) translate(21.975308641975303 28.888888888888886)"/><use xlink:href="#L" transform="matrix(1,0,0,1,764.1304680117173,645.1155170823035) translate(11.185185185185176 50.22222222222222)"/></g><path d="M739.2 680.88l-4.36-2.37m-4.35-2.35l-8.7-4.72m-4.35-2.36l-8.7-4.72m-4.34-2.37l-8.7-4.72m-4.34-2.36l-8.7-4.72m-4.34-2.36l-8.7-4.73m-4.34-2.37l-8.7-4.72m-4.35-2.35l-8.7-4.73m-4.34-2.36l-8.7-4.72m-4.36-2.36l-8.7-4.72m-4.34-2.37l-8.7-4.73m-4.34-2.36l-8.7-4.7m-4.35-2.37l-8.68-4.73m-4.35-2.36l-8.7-4.72m-4.34-2.36l-8.7-4.72m-4.35-2.37l-8.7-4.72m-4.34-2.36l-4.35-2.37" stroke="#333" fill="none"/><path d="M739.65 680.56l-.02.55V681.7l-.7-.4.5-.87z" stroke="#333" stroke-width=".05" fill="#333"/><path d="M550.54 566.83l-20 .73 10.28 17.17" stroke="#333" fill="none"/><g><use xlink:href="#l" transform="matrix(1,0,0,1,637.3653163113903,607.4062778730788) translate(0 14.222222222222223)"/></g><defs><path fill="#333" d="M240-76C239 26 104-5 6 0l48-248c79 4 193-21 193 58 0 38-25 53-57 60 29 5 49 21 50 54zm-45-106c0-40-58-24-96-27l-12 61c45-3 108 12 108-34zm-7 105c0-44-65-31-109-33L66-38c51-3 122 14 122-39" id="M"/><path fill="#333" d="M124-194c51 0 84 22 84 74C207-44 167 4 94 4 43 4 11-23 11-74c0-74 41-120 113-120zM99-30c46 0 58-42 58-86 0-27-11-44-37-44-44 0-55 40-57 84-1 27 10 45 36 46" id="N"/><path fill="#333" d="M128 0L95-87 70-74 55 0H6l51-261h49L77-111l82-79h56l-83 74L180 0h-52" id="O"/><path fill="#333" d="M50-224l7-37h49l-7 37H50zM6 0l37-190h49L55 0H6" id="P"/><path fill="#333" d="M151-194c95 0 34 128 28 194h-49l25-134c0-29-45-25-59-9C67-111 69-48 56 0H6l36-190h47l-4 32c15-20 33-36 66-36" id="Q"/><path fill="#333" d="M45-171c29-32 103-29 114 14 2-11 5-23 8-33h47L176-2c-3 70-92 96-155 64C9 56 1 42-1 25l50-5c2 28 48 27 63 11 13-13 20-45 21-66-13 20-30 35-62 36-87 3-60-134-26-172zM94-35c41-3 55-43 55-86 0-24-12-39-35-39-43 0-51 48-51 90 0 22 9 37 31 35" id="R"/><g id="a"><use transform="matrix(0.06172839506172839,0,0,0.06172839506172839,0,0)" xlink:href="#M"/><use transform="matrix(0.06172839506172839,0,0,0.06172839506172839,15.987654320987653,0)" xlink:href="#N"/><use transform="matrix(0.06172839506172839,0,0,0.06172839506172839,29.50617283950617,0)" xlink:href="#N"/><use transform="matrix(0.06172839506172839,0,0,0.06172839506172839,43.02469135802469,0)" xlink:href="#O"/><use transform="matrix(0.06172839506172839,0,0,0.06172839506172839,55.37037037037037,0)" xlink:href="#P"/><use transform="matrix(0.06172839506172839,0,0,0.06172839506172839,61.54320987654321,0)" xlink:href="#Q"/><use transform="matrix(0.06172839506172839,0,0,0.06172839506172839,75.06172839506172,0)" xlink:href="#R"/></g><path fill="#333" d="M179 0l23-115H67L45 0H11l48-248h34L72-143h135l21-105h32L212 0h-33" id="S"/><path fill="#333" d="M31-147c31-64 166-65 159 27C184-49 159 1 87 4 10 8 2-88 31-147zM89-20c53 0 68-48 68-100 0-31-11-51-44-50-52 1-68 46-68 97 0 32 13 53 44 53zm5-191c10-23 31-35 45-54h38l-1 5-66 49H94" id="T"/><path fill="#333" d="M55-144c13 50 104 24 104 88C159 21 15 23 1-39l26-10c6 40 102 42 102-4-13-50-104-23-104-87 0-71 143-71 148-8l-29 4c-5-35-85-37-89 0" id="U"/><path fill="#333" d="M67-162c32-53 139-36 121 50C175-51 163 2 97 4 68 4 52-11 42-31 38 6 28 39 22 75H-9l50-265h29c-1 10 0 20-3 28zm89 36c0-26-10-43-35-43-54 0-67 50-69 103-1 29 14 45 42 46 53 0 62-58 62-106" id="V"/><path fill="#333" d="M111-194c62-3 86 47 72 106H45c-7 38 6 69 45 68 27-1 43-14 53-32l24 11C152-15 129 4 87 4 38 3 12-23 12-71c0-70 32-119 99-123zm44 81c14-66-71-72-95-28-4 8-8 17-11 28h106" id="W"/><path fill="#333" d="M133-28C103 26-5 8 13-77c13-62 24-115 90-117 29-1 46 15 56 35l19-102h32L160 0h-30zM45-64c-2 27 10 43 35 43 54-1 69-50 69-103 0-29-15-46-42-46-53-1-58 58-62 106" id="X"/><g id="b"><use transform="matrix(0.04938271604938272,0,0,0.04938271604938272,0,0)" xlink:href="#S"/><use transform="matrix(0.04938271604938272,0,0,0.04938271604938272,12.790123456790125,0)" xlink:href="#T"/><use transform="matrix(0.04938271604938272,0,0,0.04938271604938272,22.66666666666667,0)" xlink:href="#U"/><use transform="matrix(0.04938271604938272,0,0,0.04938271604938272,31.555555555555557,0)" xlink:href="#V"/><use transform="matrix(0.04938271604938272,0,0,0.04938271604938272,41.4320987654321,0)" xlink:href="#W"/><use transform="matrix(0.04938271604938272,0,0,0.04938271604938272,51.308641975308646,0)" xlink:href="#X"/><use transform="matrix(0.04938271604938272,0,0,0.04938271604938272,61.18518518518519,0)" xlink:href="#W"/></g><path fill="#333" d="M194-120c59 52 2 134-86 124-53-6-90-18-98-63l31-7c8 30 29 43 70 43 46 0 84-17 71-62-32-43-135-20-137-98-3-89 178-90 191-16l-30 9c-8-48-127-53-127 5 0 53 81 35 115 65" id="Y"/><path fill="#333" d="M66-151c12-25 30-51 66-40l-6 26C45-176 58-65 38 0H6l36-190h30" id="Z"/><path fill="#333" d="M89 0H52L20-190h33L74-25l89-165h34" id="aa"/><path fill="#333" d="M50-231l6-30h32l-6 30H50zM6 0l37-190h31L37 0H6" id="ab"/><path fill="#333" d="M44-68c0 29 11 47 38 47 30 0 42-19 51-41l28 9C148-21 126 4 82 4 31 4 10-29 12-85c3-77 74-140 146-93 12 8 15 23 18 40l-31 5c-1-22-13-36-36-36-52 0-65 49-65 101zM85 43c0-13-18-15-31-12L71 0h19L80 17c16 1 28 8 28 24 0 34-40 36-72 32l4-16c19 4 44 4 45-14" id="ac"/><path fill="#333" d="M30-147c31-64 166-65 159 27C183-49 158 1 86 4 9 8 1-88 30-147zM88-20c53 0 68-48 68-100 0-31-11-51-44-50-52 1-68 46-68 97 0 32 13 53 44 53" id="ad"/><g id="c"><use transform="matrix(0.04938271604938272,0,0,0.04938271604938272,0,0)" xlink:href="#Y"/><use transform="matrix(0.04938271604938272,0,0,0.04938271604938272,11.851851851851853,0)" xlink:href="#W"/><use transform="matrix(0.04938271604938272,0,0,0.04938271604938272,21.7283950617284,0)" xlink:href="#Z"/><use transform="matrix(0.04938271604938272,0,0,0.04938271604938272,27.604938271604947,0)" xlink:href="#aa"/><use transform="matrix(0.04938271604938272,0,0,0.04938271604938272,36.49382716049384,0)" xlink:href="#ab"/><use transform="matrix(0.04938271604938272,0,0,0.04938271604938272,40.39506172839507,0)" xlink:href="#ac"/><use transform="matrix(0.04938271604938272,0,0,0.04938271604938272,49.28395061728396,0)" xlink:href="#ad"/></g><g id="d"><use transform="matrix(0.04938271604938272,0,0,0.04938271604938272,0,0)" xlink:href="#X"/><use transform="matrix(0.04938271604938272,0,0,0.04938271604938272,9.876543209876544,0)" xlink:href="#W"/></g><path fill="#333" d="M238-179c0 84-86 86-175 82L45 0H11l48-248c82 0 179-12 179 69zm-34 1c0-53-64-42-116-43l-19 98c63 0 135 9 135-55" id="ae"/><path fill="#333" d="M165-48c-4 18 1 34 23 27l-3 20c-29 8-62 0-52-35h-2C116-14 99 4 63 4 30 4 8-16 8-49c0-68 71-67 138-67 10-26 0-56-31-54-26 1-42 9-47 31l-32-5c8-67 160-71 144 15-5 28-9 54-15 81zM42-50c3 52 80 24 89-6 7-12 7-24 11-38-47 1-103-4-100 44" id="af"/><path fill="#333" d="M103-194c29 0 47 14 56 36 2-11 5-23 8-32h30L160-5C157 61 82 97 21 62 9 55 4 45 1 30l28-7c7 42 83 31 92-3 4-16 9-38 13-55-13 20-29 36-62 36-40 0-60-25-60-64 0-71 23-131 91-131zm4 24c-53 0-58 54-61 104-2 27 10 44 36 44 49 0 65-50 67-102 1-29-15-46-42-46" id="ag"/><path fill="#333" d="M248-111c6-24 9-61-24-58-72 9-57 108-77 169h-31l26-142c3-37-50-30-64-10C52-115 50-51 37 0H6l36-190h30c-1 10-6 24-4 32 13-43 101-52 105 5 13-22 29-41 61-41 90 0 28 129 23 194h-31" id="ah"/><path fill="#333" d="M67-158c22-48 132-52 116 29L158 0h-32l25-140c3-38-53-32-70-12C52-117 51-52 38 0H6l36-190h30" id="ai"/><path fill="#333" d="M51-54c-9 22 5 41 31 30L79-1C43 14 10-4 19-52l22-115H19l5-23h22l19-43h21l-9 43h35l-4 23H73" id="aj"/><g id="e"><use transform="matrix(0.04938271604938272,0,0,0.04938271604938272,0,0)" xlink:href="#ae"/><use transform="matrix(0.04938271604938272,0,0,0.04938271604938272,11.851851851851853,0)" xlink:href="#af"/><use transform="matrix(0.04938271604938272,0,0,0.04938271604938272,21.7283950617284,0)" xlink:href="#ag"/><use transform="matrix(0.04938271604938272,0,0,0.04938271604938272,31.60493827160494,0)" xlink:href="#af"/><use transform="matrix(0.04938271604938272,0,0,0.04938271604938272,41.48148148148149,0)" xlink:href="#ah"/><use transform="matrix(0.04938271604938272,0,0,0.04938271604938272,56.24691358024693,0)" xlink:href="#W"/><use transform="matrix(0.04938271604938272,0,0,0.04938271604938272,66.12345679012347,0)" xlink:href="#ai"/><use transform="matrix(0.04938271604938272,0,0,0.04938271604938272,76.00000000000001,0)" xlink:href="#aj"/><use transform="matrix(0.04938271604938272,0,0,0.04938271604938272,80.93827160493828,0)" xlink:href="#ad"/></g><path fill="#fff" d="M249-183c0 48-29 72-75 77L221 0h-36l-43-103H65L45 0H11l48-248c83 2 190-17 190 65zm-34 3c0-55-74-39-127-41l-18 92c63-1 145 13 145-51" id="ak"/><path fill="#fff" d="M111-194c62-3 86 47 72 106H45c-7 38 6 69 45 68 27-1 43-14 53-32l24 11C152-15 129 4 87 4 38 3 12-23 12-71c0-70 32-119 99-123zm44 81c14-66-71-72-95-28-4 8-8 17-11 28h106" id="al"/><path fill="#fff" d="M165-48c-4 18 1 34 23 27l-3 20c-29 8-62 0-52-35h-2C116-14 99 4 63 4 30 4 8-16 8-49c0-68 71-67 138-67 10-26 0-56-31-54-26 1-42 9-47 31l-32-5c8-67 160-71 144 15-5 28-9 54-15 81zM42-50c3 52 80 24 89-6 7-12 7-24 11-38-47 1-103-4-100 44" id="am"/><path fill="#fff" d="M6 0l50-261h32L37 0H6" id="an"/><path fill="#fff" d="M50-231l6-30h32l-6 30H50zM6 0l37-190h31L37 0H6" id="ao"/><path fill="#fff" d="M-8 0l5-24 140-142H31l5-24h145l-5 24L36-24h119l-5 24H-8" id="ap"/><path fill="#fff" d="M66-151c12-25 30-51 66-40l-6 26C45-176 58-65 38 0H6l36-190h30" id="aq"/><g id="f"><use transform="matrix(0.04938271604938272,0,0,0.04938271604938272,0,0)" xlink:href="#ak"/><use transform="matrix(0.04938271604938272,0,0,0.04938271604938272,12.790123456790125,0)" xlink:href="#al"/><use transform="matrix(0.04938271604938272,0,0,0.04938271604938272,22.66666666666667,0)" xlink:href="#am"/><use transform="matrix(0.04938271604938272,0,0,0.04938271604938272,32.543209876543216,0)" xlink:href="#an"/><use transform="matrix(0.04938271604938272,0,0,0.04938271604938272,36.44444444444445,0)" xlink:href="#ao"/><use transform="matrix(0.04938271604938272,0,0,0.04938271604938272,40.345679012345684,0)" xlink:href="#ap"/><use transform="matrix(0.04938271604938272,0,0,0.04938271604938272,49.23456790123457,0)" xlink:href="#am"/><use transform="matrix(0.04938271604938272,0,0,0.04938271604938272,59.111111111111114,0)" xlink:href="#aq"/></g><path fill="#fff" d="M67-162c32-53 139-36 121 50C175-51 163 2 97 4 68 4 52-11 42-31 38 6 28 39 22 75H-9l50-265h29c-1 10 0 20-3 28zm89 36c0-26-10-43-35-43-54 0-67 50-69 103-1 29 14 45 42 46 53 0 62-58 62-106" id="ar"/><path fill="#fff" d="M55-144c13 50 104 24 104 88C159 21 15 23 1-39l26-10c6 40 102 42 102-4-13-50-104-23-104-87 0-71 143-71 148-8l-29 4c-5-35-85-37-89 0" id="as"/><path fill="#fff" d="M133-28C103 26-5 8 13-77c13-62 24-115 90-117 29-1 46 15 56 35 2-12 6-24 8-34h31L144 75h-31zM45-64c-2 27 10 43 35 43 54-1 69-50 69-103 0-29-15-46-42-46-53-1-58 58-62 106" id="at"/><path fill="#fff" d="M67 3c-93-2-31-127-26-193h32L48-50c-3 39 53 32 70 12 30-34 30-101 43-152h32L157 0h-30c1-10 6-24 4-33-14 20-29 37-64 36" id="au"/><g id="g"><use transform="matrix(0.04938271604938272,0,0,0.04938271604938272,0,0)" xlink:href="#ar"/><use transform="matrix(0.04938271604938272,0,0,0.04938271604938272,9.876543209876544,0)" xlink:href="#al"/><use transform="matrix(0.04938271604938272,0,0,0.04938271604938272,19.75308641975309,0)" xlink:href="#as"/><use transform="matrix(0.04938271604938272,0,0,0.04938271604938272,28.641975308641978,0)" xlink:href="#at"/><use transform="matrix(0.04938271604938272,0,0,0.04938271604938272,38.51851851851852,0)" xlink:href="#au"/><use transform="matrix(0.04938271604938272,0,0,0.04938271604938272,48.39506172839506,0)" xlink:href="#ao"/><use transform="matrix(0.04938271604938272,0,0,0.04938271604938272,52.2962962962963,0)" xlink:href="#as"/><use transform="matrix(0.04938271604938272,0,0,0.04938271604938272,61.18518518518519,0)" xlink:href="#am"/><use transform="matrix(0.04938271604938272,0,0,0.04938271604938272,71.06172839506173,0)" xlink:href="#as"/></g><path fill="#fff" d="M87-220l-18 92h140l-5 28H64L45 0H11l48-248h178l-5 28H87" id="av"/><path fill="#fff" d="M51-54c-9 22 5 41 31 30L79-1C43 14 10-4 19-52l22-115H19l5-23h22l19-43h21l-9 43h35l-4 23H73" id="aw"/><g id="h"><use transform="matrix(0.04938271604938272,0,0,0.04938271604938272,0,0)" xlink:href="#av"/><use transform="matrix(0.04938271604938272,0,0,0.04938271604938272,10.814814814814815,0)" xlink:href="#ao"/><use transform="matrix(0.04938271604938272,0,0,0.04938271604938272,14.71604938271605,0)" xlink:href="#an"/><use transform="matrix(0.04938271604938272,0,0,0.04938271604938272,18.617283950617285,0)" xlink:href="#aw"/><use transform="matrix(0.04938271604938272,0,0,0.04938271604938272,23.555555555555557,0)" xlink:href="#aq"/><use transform="matrix(0.04938271604938272,0,0,0.04938271604938272,29.4320987654321,0)" xlink:href="#am"/><use transform="matrix(0.04938271604938272,0,0,0.04938271604938272,39.308641975308646,0)" xlink:href="#aq"/></g><path fill="#fff" d="M133-28C103 26-5 8 13-77c13-62 24-115 90-117 29-1 46 15 56 35l19-102h32L160 0h-30zM45-64c-2 27 10 43 35 43 54-1 69-50 69-103 0-29-15-46-42-46-53-1-58 58-62 106" id="ax"/><path fill="#fff" d="M30-147c31-64 166-65 159 27C183-49 158 1 86 4 9 8 1-88 30-147zM88-20c53 0 68-48 68-100 0-31-11-51-44-50-52 1-68 46-68 97 0 32 13 53 44 53" id="ay"/><g id="i"><use transform="matrix(0.04938271604938272,0,0,0.04938271604938272,0,0)" xlink:href="#aq"/><use transform="matrix(0.04938271604938272,0,0,0.04938271604938272,5.8765432098765435,0)" xlink:href="#al"/><use transform="matrix(0.04938271604938272,0,0,0.04938271604938272,15.753086419753087,0)" xlink:href="#as"/><use transform="matrix(0.04938271604938272,0,0,0.04938271604938272,24.641975308641978,0)" xlink:href="#au"/><use transform="matrix(0.04938271604938272,0,0,0.04938271604938272,34.51851851851852,0)" xlink:href="#an"/><use transform="matrix(0.04938271604938272,0,0,0.04938271604938272,38.41975308641975,0)" xlink:href="#aw"/><use transform="matrix(0.04938271604938272,0,0,0.04938271604938272,43.358024691358025,0)" xlink:href="#am"/><use transform="matrix(0.04938271604938272,0,0,0.04938271604938272,53.23456790123457,0)" xlink:href="#ax"/><use transform="matrix(0.04938271604938272,0,0,0.04938271604938272,63.111111111111114,0)" xlink:href="#ay"/></g><g id="j"><use transform="matrix(0.04938271604938272,0,0,0.04938271604938272,0,0)" xlink:href="#ax"/><use transform="matrix(0.04938271604938272,0,0,0.04938271604938272,9.876543209876544,0)" xlink:href="#am"/></g><g id="k"><use transform="matrix(0.04938271604938272,0,0,0.04938271604938272,0,0)" xlink:href="#ar"/><use transform="matrix(0.04938271604938272,0,0,0.04938271604938272,9.876543209876544,0)" xlink:href="#al"/><use transform="matrix(0.04938271604938272,0,0,0.04938271604938272,19.75308641975309,0)" xlink:href="#as"/><use transform="matrix(0.04938271604938272,0,0,0.04938271604938272,28.641975308641978,0)" xlink:href="#at"/><use transform="matrix(0.04938271604938272,0,0,0.04938271604938272,38.51851851851852,0)" xlink:href="#au"/><use transform="matrix(0.04938271604938272,0,0,0.04938271604938272,48.39506172839506,0)" xlink:href="#ao"/><use transform="matrix(0.04938271604938272,0,0,0.04938271604938272,52.2962962962963,0)" xlink:href="#as"/><use transform="matrix(0.04938271604938272,0,0,0.04938271604938272,61.18518518518519,0)" xlink:href="#am"/></g><path fill="#333" d="M23-100v-36l175-74v27L47-118l151 64v27" id="az"/><path fill="#333" d="M124 0L87-78 21 0h-35l86-98-46-92h33l34 74 61-74h37l-83 92 50 98h-34" id="aA"/><path fill="#333" d="M23-27v-27l151-64-151-65v-27l175 74v36" id="aB"/><g id="l"><use transform="matrix(0.04938271604938272,0,0,0.04938271604938272,0,0)" xlink:href="#az"/><use transform="matrix(0.04938271604938272,0,0,0.04938271604938272,10.370370370370372,0)" xlink:href="#az"/><use transform="matrix(0.04938271604938272,0,0,0.04938271604938272,20.740740740740744,0)" xlink:href="#W"/><use transform="matrix(0.04938271604938272,0,0,0.04938271604938272,30.617283950617285,0)" xlink:href="#aA"/><use transform="matrix(0.04938271604938272,0,0,0.04938271604938272,39.50617283950618,0)" xlink:href="#aj"/><use transform="matrix(0.04938271604938272,0,0,0.04938271604938272,44.44444444444445,0)" xlink:href="#W"/><use transform="matrix(0.04938271604938272,0,0,0.04938271604938272,54.320987654320994,0)" xlink:href="#ai"/><use transform="matrix(0.04938271604938272,0,0,0.04938271604938272,64.19753086419755,0)" xlink:href="#X"/><use transform="matrix(0.04938271604938272,0,0,0.04938271604938272,74.07407407407409,0)" xlink:href="#U"/><use transform="matrix(0.04938271604938272,0,0,0.04938271604938272,82.96296296296298,0)" xlink:href="#aB"/><use transform="matrix(0.04938271604938272,0,0,0.04938271604938272,93.33333333333334,0)" xlink:href="#aB"/></g><path fill="#333" d="M166-48c-4 18 1 34 23 27l-3 20c-29 8-62 0-52-35h-2C117-14 100 4 64 4 31 4 9-16 9-49c0-68 71-67 138-67 10-26 0-56-31-54-26 1-42 9-47 31l-32-5c8-67 160-71 144 15-5 28-9 54-15 81zM43-50c3 52 80 24 89-6 7-12 7-24 11-38-47 1-103-4-100 44zm52-161c10-23 31-35 45-54h38l-1 5-66 49H95" id="aC"/><g id="m"><use transform="matrix(0.04938271604938272,0,0,0.04938271604938272,0,0)" xlink:href="#ae"/><use transform="matrix(0.04938271604938272,0,0,0.04938271604938272,11.851851851851853,0)" xlink:href="#Z"/><use transform="matrix(0.04938271604938272,0,0,0.04938271604938272,17.728395061728396,0)" xlink:href="#ad"/><use transform="matrix(0.04938271604938272,0,0,0.04938271604938272,27.60493827160494,0)" xlink:href="#V"/><use transform="matrix(0.04938271604938272,0,0,0.04938271604938272,37.48148148148148,0)" xlink:href="#Z"/><use transform="matrix(0.04938271604938272,0,0,0.04938271604938272,43.358024691358025,0)" xlink:href="#ab"/><use transform="matrix(0.04938271604938272,0,0,0.04938271604938272,47.25925925925926,0)" xlink:href="#W"/><use transform="matrix(0.04938271604938272,0,0,0.04938271604938272,57.135802469135804,0)" xlink:href="#aj"/><use transform="matrix(0.04938271604938272,0,0,0.04938271604938272,62.074074074074076,0)" xlink:href="#aC"/><use transform="matrix(0.04938271604938272,0,0,0.04938271604938272,71.95061728395062,0)" xlink:href="#Z"/><use transform="matrix(0.04938271604938272,0,0,0.04938271604938272,77.82716049382717,0)" xlink:href="#ab"/><use transform="matrix(0.04938271604938272,0,0,0.04938271604938272,81.7283950617284,0)" xlink:href="#ad"/></g><path fill="#fff" d="M103-194c29 0 47 14 56 36 2-11 5-23 8-32h30L160-5C157 61 82 97 21 62 9 55 4 45 1 30l28-7c7 42 83 31 92-3 4-16 9-38 13-55-13 20-29 36-62 36-40 0-60-25-60-64 0-71 23-131 91-131zm4 24c-53 0-58 54-61 104-2 27 10 44 36 44 49 0 65-50 67-102 1-29-15-46-42-46" id="aD"/><path fill="#fff" d="M248-111c6-24 9-61-24-58-72 9-57 108-77 169h-31l26-142c3-37-50-30-64-10C52-115 50-51 37 0H6l36-190h30c-1 10-6 24-4 32 13-43 101-52 105 5 13-22 29-41 61-41 90 0 28 129 23 194h-31" id="aE"/><path fill="#fff" d="M67-158c22-48 132-52 116 29L158 0h-32l25-140c3-38-53-32-70-12C52-117 51-52 38 0H6l36-190h30" id="aF"/><g id="n"><use transform="matrix(0.04938271604938272,0,0,0.04938271604938272,0,0)" xlink:href="#ar"/><use transform="matrix(0.04938271604938272,0,0,0.04938271604938272,9.876543209876544,0)" xlink:href="#am"/><use transform="matrix(0.04938271604938272,0,0,0.04938271604938272,19.75308641975309,0)" xlink:href="#aD"/><use transform="matrix(0.04938271604938272,0,0,0.04938271604938272,29.629629629629633,0)" xlink:href="#am"/><use transform="matrix(0.04938271604938272,0,0,0.04938271604938272,39.50617283950618,0)" xlink:href="#aE"/><use transform="matrix(0.04938271604938272,0,0,0.04938271604938272,54.27160493827161,0)" xlink:href="#al"/><use transform="matrix(0.04938271604938272,0,0,0.04938271604938272,64.14814814814815,0)" xlink:href="#aF"/><use transform="matrix(0.04938271604938272,0,0,0.04938271604938272,74.0246913580247,0)" xlink:href="#aw"/><use transform="matrix(0.04938271604938272,0,0,0.04938271604938272,78.96296296296296,0)" xlink:href="#ay"/></g><g id="o"><use transform="matrix(0.04938271604938272,0,0,0.04938271604938272,0,0)" xlink:href="#ar"/><use transform="matrix(0.04938271604938272,0,0,0.04938271604938272,9.876543209876544,0)" xlink:href="#am"/><use transform="matrix(0.04938271604938272,0,0,0.04938271604938272,19.75308641975309,0)" xlink:href="#aD"/><use transform="matrix(0.04938271604938272,0,0,0.04938271604938272,29.629629629629633,0)" xlink:href="#am"/><use transform="matrix(0.04938271604938272,0,0,0.04938271604938272,39.50617283950618,0)" xlink:href="#aE"/><use transform="matrix(0.04938271604938272,0,0,0.04938271604938272,54.27160493827161,0)" xlink:href="#al"/><use transform="matrix(0.04938271604938272,0,0,0.04938271604938272,64.14814814814815,0)" xlink:href="#aF"/><use transform="matrix(0.04938271604938272,0,0,0.04938271604938272,74.0246913580247,0)" xlink:href="#aw"/><use transform="matrix(0.04938271604938272,0,0,0.04938271604938272,78.96296296296296,0)" xlink:href="#ay"/></g><path fill="#fff" d="M44-68c0 29 11 47 38 47 30 0 42-19 51-41l28 9C148-21 126 4 82 4 31 4 10-29 12-85c3-77 74-140 146-93 12 8 15 23 18 40l-31 5c-1-22-13-36-36-36-52 0-65 49-65 101" id="aG"/><g id="p"><use transform="matrix(0.04938271604938272,0,0,0.04938271604938272,0,0)" xlink:href="#aG"/><use transform="matrix(0.04938271604938272,0,0,0.04938271604938272,8.88888888888889,0)" xlink:href="#ay"/><use transform="matrix(0.04938271604938272,0,0,0.04938271604938272,18.765432098765434,0)" xlink:href="#aE"/></g><path fill="#fff" d="M166-48c-4 18 1 34 23 27l-3 20c-29 8-62 0-52-35h-2C117-14 100 4 64 4 31 4 9-16 9-49c0-68 71-67 138-67 10-26 0-56-31-54-26 1-42 9-47 31l-32-5c8-67 160-71 144 15-5 28-9 54-15 81zM43-50c3 52 80 24 89-6 7-12 7-24 11-38-47 1-103-4-100 44zm150-208c-8 21-15 46-44 47-22 0-30-19-50-21-14 0-21 10-25 21H58c8-21 14-47 44-47 22 0 32 18 50 21 13-1 21-10 25-21h16" id="aH"/><g id="q"><use transform="matrix(0.04938271604938272,0,0,0.04938271604938272,0,0)" xlink:href="#aG"/><use transform="matrix(0.04938271604938272,0,0,0.04938271604938272,8.88888888888889,0)" xlink:href="#am"/><use transform="matrix(0.04938271604938272,0,0,0.04938271604938272,18.765432098765434,0)" xlink:href="#aq"/><use transform="matrix(0.04938271604938272,0,0,0.04938271604938272,24.641975308641978,0)" xlink:href="#aw"/><use transform="matrix(0.04938271604938272,0,0,0.04938271604938272,29.58024691358025,0)" xlink:href="#aH"/><use transform="matrix(0.04938271604938272,0,0,0.04938271604938272,39.4567901234568,0)" xlink:href="#ay"/></g><g id="r"><use transform="matrix(0.04938271604938272,0,0,0.04938271604938272,0,0)" xlink:href="#ax"/><use transform="matrix(0.04938271604938272,0,0,0.04938271604938272,9.876543209876544,0)" xlink:href="#al"/></g><path fill="#fff" d="M111-194c62-3 86 47 72 106H45c-7 38 6 69 45 68 27-1 43-14 53-32l24 11C152-15 129 4 87 4 38 3 12-23 12-71c0-70 32-119 99-123zm44 81c14-66-71-72-95-28-4 8-8 17-11 28h106zm-61-98c10-23 31-35 45-54h38l-1 5-66 49H94" id="aI"/><path fill="#fff" d="M68-162c25-46 127-43 121 31C183-60 169 1 98 4 69 5 53-11 43-31L36 0H5l52-261h31zm88 36c2-27-9-43-34-43-55 0-70 51-70 103 0 29 15 45 43 46 52 0 58-58 61-106" id="aJ"/><g id="s"><use transform="matrix(0.04938271604938272,0,0,0.04938271604938272,0,0)" xlink:href="#ax"/><use transform="matrix(0.04938271604938272,0,0,0.04938271604938272,9.876543209876544,0)" xlink:href="#aI"/><use transform="matrix(0.04938271604938272,0,0,0.04938271604938272,19.75308641975309,0)" xlink:href="#aJ"/><use transform="matrix(0.04938271604938272,0,0,0.04938271604938272,29.629629629629633,0)" xlink:href="#ao"/><use transform="matrix(0.04938271604938272,0,0,0.04938271604938272,33.53086419753087,0)" xlink:href="#aw"/><use transform="matrix(0.04938271604938272,0,0,0.04938271604938272,38.46913580246914,0)" xlink:href="#ay"/></g><g id="t"><use transform="matrix(0.04938271604938272,0,0,0.04938271604938272,0,0)" xlink:href="#aG"/><use transform="matrix(0.04938271604938272,0,0,0.04938271604938272,8.88888888888889,0)" xlink:href="#aq"/><use transform="matrix(0.04938271604938272,0,0,0.04938271604938272,14.765432098765434,0)" xlink:href="#aI"/><use transform="matrix(0.04938271604938272,0,0,0.04938271604938272,24.641975308641978,0)" xlink:href="#ax"/><use transform="matrix(0.04938271604938272,0,0,0.04938271604938272,34.51851851851852,0)" xlink:href="#ao"/><use transform="matrix(0.04938271604938272,0,0,0.04938271604938272,38.41975308641975,0)" xlink:href="#aw"/><use transform="matrix(0.04938271604938272,0,0,0.04938271604938272,43.358024691358025,0)" xlink:href="#ay"/></g><path fill="#333" d="M18-100v-36l175-74v27L42-118l151 64v27" id="aK"/><path fill="#333" d="M24-231v-30h32v30H24zM24 0v-190h32V0H24" id="aL"/><path fill="#333" d="M117-194c89-4 53 116 60 194h-32v-121c0-31-8-49-39-48C34-167 62-67 57 0H25l-1-190h30c1 10-1 24 2 32 11-22 29-35 61-36" id="aM"/><path fill="#333" d="M96-169c-40 0-48 33-48 73s9 75 48 75c24 0 41-14 43-38l32 2c-6 37-31 61-74 61-59 0-76-41-82-99-10-93 101-131 147-64 4 7 5 14 7 22l-32 3c-4-21-16-35-41-35" id="aN"/><path fill="#333" d="M24 0v-261h32V0H24" id="aO"/><path fill="#333" d="M84 4C-5 8 30-112 23-190h32v120c0 31 7 50 39 49 72-2 45-101 50-169h31l1 190h-30c-1-10 1-25-2-33-11 22-28 36-60 37" id="aP"/><path fill="#333" d="M85-194c31 0 48 13 60 33l-1-100h32l1 261h-30c-2-10 0-23-3-31C134-8 116 4 85 4 32 4 16-35 15-94c0-66 23-100 70-100zm9 24c-40 0-46 34-46 75 0 40 6 74 45 74 42 0 51-32 51-76 0-42-9-74-50-73" id="aQ"/><path fill="#333" d="M100-194c63 0 86 42 84 106H49c0 40 14 67 53 68 26 1 43-12 49-29l28 8c-11 28-37 45-77 45C44 4 14-33 15-96c1-61 26-98 85-98zm52 81c6-60-76-77-97-28-3 7-6 17-6 28h103" id="aR"/><path fill="#333" d="M18-27v-27l151-64-151-65v-27l175 74v36" id="aS"/><g id="u"><use transform="matrix(0.05,0,0,0.05,0,0)" xlink:href="#aK"/><use transform="matrix(0.05,0,0,0.05,10.5,0)" xlink:href="#aK"/><use transform="matrix(0.05,0,0,0.05,21,0)" xlink:href="#aL"/><use transform="matrix(0.05,0,0,0.05,24.95,0)" xlink:href="#aM"/><use transform="matrix(0.05,0,0,0.05,34.95,0)" xlink:href="#aN"/><use transform="matrix(0.05,0,0,0.05,43.95,0)" xlink:href="#aO"/><use transform="matrix(0.05,0,0,0.05,47.900000000000006,0)" xlink:href="#aP"/><use transform="matrix(0.05,0,0,0.05,57.900000000000006,0)" xlink:href="#aQ"/><use transform="matrix(0.05,0,0,0.05,67.9,0)" xlink:href="#aR"/><use transform="matrix(0.05,0,0,0.05,77.9,0)" xlink:href="#aS"/><use transform="matrix(0.05,0,0,0.05,88.4,0)" xlink:href="#aS"/></g><path fill="#fff" d="M89 0H52L20-190h33L74-25l89-165h34" id="aT"/><g id="v"><use transform="matrix(0.04938271604938272,0,0,0.04938271604938272,0,0)" xlink:href="#ak"/><use transform="matrix(0.04938271604938272,0,0,0.04938271604938272,12.790123456790125,0)" xlink:href="#al"/><use transform="matrix(0.04938271604938272,0,0,0.04938271604938272,22.66666666666667,0)" xlink:href="#as"/><use transform="matrix(0.04938271604938272,0,0,0.04938271604938272,31.555555555555557,0)" xlink:href="#al"/><use transform="matrix(0.04938271604938272,0,0,0.04938271604938272,41.4320987654321,0)" xlink:href="#aq"/><use transform="matrix(0.04938271604938272,0,0,0.04938271604938272,47.308641975308646,0)" xlink:href="#aT"/><use transform="matrix(0.04938271604938272,0,0,0.04938271604938272,56.19753086419754,0)" xlink:href="#am"/><use transform="matrix(0.04938271604938272,0,0,0.04938271604938272,66.07407407407408,0)" xlink:href="#aq"/></g><path fill="#fff" d="M44-68c0 29 11 47 38 47 30 0 42-19 51-41l28 9C148-21 126 4 82 4 31 4 10-29 12-85c3-77 74-140 146-93 12 8 15 23 18 40l-31 5c-1-22-13-36-36-36-52 0-65 49-65 101zM85 43c0-13-18-15-31-12L71 0h19L80 17c16 1 28 8 28 24 0 34-40 36-72 32l4-16c19 4 44 4 45-14" id="aU"/><g id="w"><use transform="matrix(0.04938271604938272,0,0,0.04938271604938272,0,0)" xlink:href="#am"/><use transform="matrix(0.04938271604938272,0,0,0.04938271604938272,9.876543209876544,0)" xlink:href="#aG"/><use transform="matrix(0.04938271604938272,0,0,0.04938271604938272,18.765432098765434,0)" xlink:href="#ay"/><use transform="matrix(0.04938271604938272,0,0,0.04938271604938272,28.641975308641978,0)" xlink:href="#aE"/><use transform="matrix(0.04938271604938272,0,0,0.04938271604938272,43.40740740740741,0)" xlink:href="#ay"/><use transform="matrix(0.04938271604938272,0,0,0.04938271604938272,53.283950617283956,0)" xlink:href="#ax"/><use transform="matrix(0.04938271604938272,0,0,0.04938271604938272,63.1604938271605,0)" xlink:href="#am"/><use transform="matrix(0.04938271604938272,0,0,0.04938271604938272,73.03703703703704,0)" xlink:href="#aU"/><use transform="matrix(0.04938271604938272,0,0,0.04938271604938272,81.92592592592592,0)" xlink:href="#aH"/><use transform="matrix(0.04938271604938272,0,0,0.04938271604938272,91.80246913580247,0)" xlink:href="#ay"/></g><path fill="#fff" d="M238-179c0 84-86 86-175 82L45 0H11l48-248c82 0 179-12 179 69zm-34 1c0-53-64-42-116-43l-19 98c63 0 135 9 135-55" id="aV"/><path fill="#fff" d="M14 0l48-248h34L48 0H14" id="aW"/><path fill="#fff" d="M176 0l-54-107L30 0H-7l115-131-60-117h35l48 97 83-97h37L146-129 211 0h-35" id="aX"/><g id="x"><use transform="matrix(0.04938271604938272,0,0,0.04938271604938272,0,0)" xlink:href="#aV"/><use transform="matrix(0.04938271604938272,0,0,0.04938271604938272,11.851851851851853,0)" xlink:href="#aW"/><use transform="matrix(0.04938271604938272,0,0,0.04938271604938272,16.790123456790127,0)" xlink:href="#aX"/></g><path fill="#333" d="M141 0L90-78 38 0H4l68-98-65-92h35l48 74 47-74h35l-64 92 68 98h-35" id="aY"/><path fill="#333" d="M59-47c-2 24 18 29 38 22v24C64 9 27 4 27-40v-127H5v-23h24l9-43h21v43h35v23H59v120" id="aZ"/><path fill="#333" d="M135-143c-3-34-86-38-87 0 15 53 115 12 119 90S17 21 10-45l28-5c4 36 97 45 98 0-10-56-113-15-118-90-4-57 82-63 122-42 12 7 21 19 24 35" id="ba"/><g id="y"><use transform="matrix(0.05,0,0,0.05,0,0)" xlink:href="#aK"/><use transform="matrix(0.05,0,0,0.05,10.5,0)" xlink:href="#aK"/><use transform="matrix(0.05,0,0,0.05,21,0)" xlink:href="#aR"/><use transform="matrix(0.05,0,0,0.05,31,0)" xlink:href="#aY"/><use transform="matrix(0.05,0,0,0.05,40,0)" xlink:href="#aZ"/><use transform="matrix(0.05,0,0,0.05,45,0)" xlink:href="#aR"/><use transform="matrix(0.05,0,0,0.05,55,0)" xlink:href="#aM"/><use transform="matrix(0.05,0,0,0.05,65,0)" xlink:href="#aQ"/><use transform="matrix(0.05,0,0,0.05,75,0)" xlink:href="#ba"/><use transform="matrix(0.05,0,0,0.05,84,0)" xlink:href="#aS"/><use transform="matrix(0.05,0,0,0.05,94.5,0)" xlink:href="#aS"/></g><path fill="#fff" d="M187 0l-14-72H61L19 0h-37l149-248h38L221 0h-34zm-19-99l-22-123L76-99h92" id="bb"/><g id="z"><use transform="matrix(0.04938271604938272,0,0,0.04938271604938272,0,0)" xlink:href="#bb"/><use transform="matrix(0.04938271604938272,0,0,0.04938271604938272,11.851851851851853,0)" xlink:href="#an"/><use transform="matrix(0.04938271604938272,0,0,0.04938271604938272,15.753086419753087,0)" xlink:href="#au"/><use transform="matrix(0.04938271604938272,0,0,0.04938271604938272,25.629629629629633,0)" xlink:href="#aD"/><use transform="matrix(0.04938271604938272,0,0,0.04938271604938272,35.50617283950618,0)" xlink:href="#am"/><use transform="matrix(0.04938271604938272,0,0,0.04938271604938272,45.38271604938272,0)" xlink:href="#aq"/></g><g id="A"><use transform="matrix(0.04938271604938272,0,0,0.04938271604938272,0,0)" xlink:href="#aG"/><use transform="matrix(0.04938271604938272,0,0,0.04938271604938272,8.88888888888889,0)" xlink:href="#am"/><use transform="matrix(0.04938271604938272,0,0,0.04938271604938272,18.765432098765434,0)" xlink:href="#aq"/><use transform="matrix(0.04938271604938272,0,0,0.04938271604938272,24.641975308641978,0)" xlink:href="#aq"/><use transform="matrix(0.04938271604938272,0,0,0.04938271604938272,30.518518518518523,0)" xlink:href="#ay"/><use transform="matrix(0.04938271604938272,0,0,0.04938271604938272,40.39506172839506,0)" xlink:href="#as"/></g><g id="B"><use transform="matrix(0.04938271604938272,0,0,0.04938271604938272,0,0)" xlink:href="#bb"/><use transform="matrix(0.04938271604938272,0,0,0.04938271604938272,11.851851851851853,0)" xlink:href="#aD"/><use transform="matrix(0.04938271604938272,0,0,0.04938271604938272,21.7283950617284,0)" xlink:href="#al"/><use transform="matrix(0.04938271604938272,0,0,0.04938271604938272,31.60493827160494,0)" xlink:href="#aF"/><use transform="matrix(0.04938271604938272,0,0,0.04938271604938272,41.48148148148149,0)" xlink:href="#ax"/><use transform="matrix(0.04938271604938272,0,0,0.04938271604938272,51.35802469135803,0)" xlink:href="#am"/><use transform="matrix(0.04938271604938272,0,0,0.04938271604938272,61.23456790123457,0)" xlink:href="#aq"/></g><g id="C"><use transform="matrix(0.04938271604938272,0,0,0.04938271604938272,0,0)" xlink:href="#aT"/><use transform="matrix(0.04938271604938272,0,0,0.04938271604938272,8.88888888888889,0)" xlink:href="#ay"/><use transform="matrix(0.04938271604938272,0,0,0.04938271604938272,18.765432098765434,0)" xlink:href="#ay"/><use transform="matrix(0.04938271604938272,0,0,0.04938271604938272,28.641975308641978,0)" xlink:href="#as"/></g><path fill="#333" d="M11 0l48-248h34L50-27h125l-5 27H11" id="bc"/><path fill="#333" d="M44-68c0 29 11 47 38 47 30 0 42-19 51-41l28 9C148-21 126 4 82 4 31 4 10-29 12-85c3-77 74-140 146-93 12 8 15 23 18 40l-31 5c-1-22-13-36-36-36-52 0-65 49-65 101" id="bd"/><g id="D"><use transform="matrix(0.04938271604938272,0,0,0.04938271604938272,0,0)" xlink:href="#bc"/><use transform="matrix(0.04938271604938272,0,0,0.04938271604938272,9.876543209876544,0)" xlink:href="#ad"/><use transform="matrix(0.04938271604938272,0,0,0.04938271604938272,19.75308641975309,0)" xlink:href="#bd"/><use transform="matrix(0.04938271604938272,0,0,0.04938271604938272,28.641975308641978,0)" xlink:href="#af"/><use transform="matrix(0.04938271604938272,0,0,0.04938271604938272,38.51851851851852,0)" xlink:href="#X"/><use transform="matrix(0.04938271604938272,0,0,0.04938271604938272,48.39506172839506,0)" xlink:href="#ad"/><use transform="matrix(0.04938271604938272,0,0,0.04938271604938272,58.27160493827161,0)" xlink:href="#Z"/><use transform="matrix(0.04938271604938272,0,0,0.04938271604938272,64.14814814814815,0)" xlink:href="#af"/></g><g id="E"><use transform="matrix(0.04938271604938272,0,0,0.04938271604938272,0,0)" xlink:href="#bd"/><use transform="matrix(0.04938271604938272,0,0,0.04938271604938272,8.88888888888889,0)" xlink:href="#af"/><use transform="matrix(0.04938271604938272,0,0,0.04938271604938272,18.765432098765434,0)" xlink:href="#Z"/><use transform="matrix(0.04938271604938272,0,0,0.04938271604938272,24.641975308641978,0)" xlink:href="#Z"/><use transform="matrix(0.04938271604938272,0,0,0.04938271604938272,30.518518518518523,0)" xlink:href="#ad"/><use transform="matrix(0.04938271604938272,0,0,0.04938271604938272,40.39506172839506,0)" xlink:href="#U"/></g><path fill="#333" d="M125-24c46 0 70-25 89-51l25 16C214-24 183 4 123 4 8 4-5-146 60-208c32-50 158-61 191-5 5 7 9 14 11 22l-32 10c-9-28-33-43-69-43-74 0-108 51-108 125 0 46 24 75 72 75" id="be"/><path fill="#333" d="M67-158c15-20 31-36 64-36 94 0 33 127 27 194h-32l25-140c3-38-53-32-70-12C52-117 51-51 37 0H6l51-261h31" id="bf"/><g id="F"><use transform="matrix(0.04938271604938272,0,0,0.04938271604938272,0,0)" xlink:href="#be"/><use transform="matrix(0.04938271604938272,0,0,0.04938271604938272,12.790123456790125,0)" xlink:href="#ad"/><use transform="matrix(0.04938271604938272,0,0,0.04938271604938272,22.66666666666667,0)" xlink:href="#ah"/><use transform="matrix(0.04938271604938272,0,0,0.04938271604938272,37.4320987654321,0)" xlink:href="#V"/><use transform="matrix(0.04938271604938272,0,0,0.04938271604938272,47.308641975308646,0)" xlink:href="#af"/><use transform="matrix(0.04938271604938272,0,0,0.04938271604938272,57.18518518518519,0)" xlink:href="#ai"/><use transform="matrix(0.04938271604938272,0,0,0.04938271604938272,67.06172839506173,0)" xlink:href="#bf"/><use transform="matrix(0.04938271604938272,0,0,0.04938271604938272,76.93827160493828,0)" xlink:href="#ab"/><use transform="matrix(0.04938271604938272,0,0,0.04938271604938272,80.83950617283952,0)" xlink:href="#af"/></g><path fill="#333" d="M111-194c62-3 86 47 72 106H45c-7 38 6 69 45 68 27-1 43-14 53-32l24 11C152-15 129 4 87 4 38 3 12-23 12-71c0-70 32-119 99-123zm44 81c14-66-71-72-95-28-4 8-8 17-11 28h106zm-61-98c10-23 31-35 45-54h38l-1 5-66 49H94" id="bg"/><g id="G"><use transform="matrix(0.04938271604938272,0,0,0.04938271604938272,0,0)" xlink:href="#af"/><use transform="matrix(0.04938271604938272,0,0,0.04938271604938272,9.876543209876544,0)" xlink:href="#bg"/><use transform="matrix(0.04938271604938272,0,0,0.04938271604938272,19.75308641975309,0)" xlink:href="#Z"/><use transform="matrix(0.04938271604938272,0,0,0.04938271604938272,25.629629629629633,0)" xlink:href="#W"/><use transform="matrix(0.04938271604938272,0,0,0.04938271604938272,35.50617283950618,0)" xlink:href="#af"/></g><path fill="#fff" d="M52-101C46-14 166-7 216-51l9-45h-74l6-28h105l-18 87C217-12 181 4 130 4 60 4 18-31 18-101c0-106 78-167 188-146 30 6 48 27 59 54l-34 9c-10-26-31-41-67-40-75 1-107 50-112 123" id="bh"/><g id="H"><use transform="matrix(0.04938271604938272,0,0,0.04938271604938272,0,0)" xlink:href="#bh"/><use transform="matrix(0.04938271604938272,0,0,0.04938271604938272,13.827160493827162,0)" xlink:href="#al"/><use transform="matrix(0.04938271604938272,0,0,0.04938271604938272,23.703703703703706,0)" xlink:href="#aq"/><use transform="matrix(0.04938271604938272,0,0,0.04938271604938272,29.58024691358025,0)" xlink:href="#al"/><use transform="matrix(0.04938271604938272,0,0,0.04938271604938272,39.4567901234568,0)" xlink:href="#aF"/><use transform="matrix(0.04938271604938272,0,0,0.04938271604938272,49.33333333333334,0)" xlink:href="#aG"/><use transform="matrix(0.04938271604938272,0,0,0.04938271604938272,58.22222222222223,0)" xlink:href="#ao"/><use transform="matrix(0.04938271604938272,0,0,0.04938271604938272,62.12345679012346,0)" xlink:href="#am"/><use transform="matrix(0.04938271604938272,0,0,0.04938271604938272,72,0)" xlink:href="#aq"/></g><g id="I"><use transform="matrix(0.04938271604938272,0,0,0.04938271604938272,0,0)" xlink:href="#am"/><use transform="matrix(0.04938271604938272,0,0,0.04938271604938272,9.876543209876544,0)" xlink:href="#an"/><use transform="matrix(0.04938271604938272,0,0,0.04938271604938272,13.777777777777779,0)" xlink:href="#au"/><use transform="matrix(0.04938271604938272,0,0,0.04938271604938272,23.654320987654323,0)" xlink:href="#aD"/><use transform="matrix(0.04938271604938272,0,0,0.04938271604938272,33.53086419753087,0)" xlink:href="#au"/><use transform="matrix(0.04938271604938272,0,0,0.04938271604938272,43.40740740740741,0)" xlink:href="#al"/><use transform="matrix(0.04938271604938272,0,0,0.04938271604938272,53.283950617283956,0)" xlink:href="#an"/></g><g id="J"><use transform="matrix(0.04938271604938272,0,0,0.04938271604938272,0,0)" xlink:href="#aq"/><use transform="matrix(0.04938271604938272,0,0,0.04938271604938272,5.8765432098765435,0)" xlink:href="#al"/><use transform="matrix(0.04938271604938272,0,0,0.04938271604938272,15.753086419753087,0)" xlink:href="#as"/><use transform="matrix(0.04938271604938272,0,0,0.04938271604938272,24.641975308641978,0)" xlink:href="#al"/><use transform="matrix(0.04938271604938272,0,0,0.04938271604938272,34.51851851851852,0)" xlink:href="#aq"/><use transform="matrix(0.04938271604938272,0,0,0.04938271604938272,40.39506172839506,0)" xlink:href="#aT"/><use transform="matrix(0.04938271604938272,0,0,0.04938271604938272,49.28395061728395,0)" xlink:href="#am"/><use transform="matrix(0.04938271604938272,0,0,0.04938271604938272,59.1604938271605,0)" xlink:href="#as"/></g><path fill="#fff" d="M125-24c46 0 70-25 89-51l25 16C214-24 183 4 123 4 8 4-5-146 60-208c32-50 158-61 191-5 5 7 9 14 11 22l-32 10c-9-28-33-43-69-43-74 0-108 51-108 125 0 46 24 75 72 75" id="bi"/><g id="K"><use transform="matrix(0.04938271604938272,0,0,0.04938271604938272,0,0)" xlink:href="#bi"/><use transform="matrix(0.04938271604938272,0,0,0.04938271604938272,12.790123456790125,0)" xlink:href="#ay"/><use transform="matrix(0.04938271604938272,0,0,0.04938271604938272,22.66666666666667,0)" xlink:href="#aF"/><use transform="matrix(0.04938271604938272,0,0,0.04938271604938272,32.543209876543216,0)" xlink:href="#aw"/><use transform="matrix(0.04938271604938272,0,0,0.04938271604938272,37.48148148148149,0)" xlink:href="#am"/><use transform="matrix(0.04938271604938272,0,0,0.04938271604938272,47.35802469135803,0)" xlink:href="#aw"/><use transform="matrix(0.04938271604938272,0,0,0.04938271604938272,52.2962962962963,0)" xlink:href="#am"/><use transform="matrix(0.04938271604938272,0,0,0.04938271604938272,62.17283950617284,0)" xlink:href="#aq"/></g><path fill="#fff" d="M166-48c-4 18 1 34 23 27l-3 20c-29 8-62 0-52-35h-2C117-14 100 4 64 4 31 4 9-16 9-49c0-68 71-67 138-67 10-26 0-56-31-54-26 1-42 9-47 31l-32-5c8-67 160-71 144 15-5 28-9 54-15 81zM43-50c3 52 80 24 89-6 7-12 7-24 11-38-47 1-103-4-100 44zm52-161c10-23 31-35 45-54h38l-1 5-66 49H95" id="bj"/><g id="L"><use transform="matrix(0.04938271604938272,0,0,0.04938271604938272,0,0)" xlink:href="#ar"/><use transform="matrix(0.04938271604938272,0,0,0.04938271604938272,9.876543209876544,0)" xlink:href="#aq"/><use transform="matrix(0.04938271604938272,0,0,0.04938271604938272,15.753086419753087,0)" xlink:href="#ay"/><use transform="matrix(0.04938271604938272,0,0,0.04938271604938272,25.629629629629633,0)" xlink:href="#ar"/><use transform="matrix(0.04938271604938272,0,0,0.04938271604938272,35.50617283950618,0)" xlink:href="#aq"/><use transform="matrix(0.04938271604938272,0,0,0.04938271604938272,41.38271604938272,0)" xlink:href="#ao"/><use transform="matrix(0.04938271604938272,0,0,0.04938271604938272,45.283950617283956,0)" xlink:href="#al"/><use transform="matrix(0.04938271604938272,0,0,0.04938271604938272,55.1604938271605,0)" xlink:href="#aw"/><use transform="matrix(0.04938271604938272,0,0,0.04938271604938272,60.09876543209877,0)" xlink:href="#bj"/><use transform="matrix(0.04938271604938272,0,0,0.04938271604938272,69.97530864197532,0)" xlink:href="#aq"/><use transform="matrix(0.04938271604938272,0,0,0.04938271604938272,75.85185185185186,0)" xlink:href="#ao"/><use transform="matrix(0.04938271604938272,0,0,0.04938271604938272,79.7530864197531,0)" xlink:href="#ay"/></g></defs></g></svg>